<svg id="Layer_1" enable-background="new 0 0 512 512" height="512" viewBox="0 0 512 512" width="512" xmlns="http://www.w3.org/2000/svg"><g><path d="m317.13 173.34c-2.813-2.813-6.628-4.394-10.607-4.394h-121.124c-8.284 0-15 6.716-15 15v123.937c0 3.979 1.581 7.794 4.394 10.606l22.294 22.294c2.813 2.813 6.628 4.394 10.606 4.394h119.021c8.284 0 15-6.716 15-15v-126.038c0-3.979-1.581-7.793-4.393-10.606zm-5.415 141.837h-97.809l-13.507-13.507v-102.724h99.911l11.405 11.405z"/><path d="m484.989 349.003v-27.367c0-8.284-6.716-15-15-15h-67.304v-37.8h94.164c8.284 0 15-6.716 15-15s-6.716-15-15-15h-94.164v-33.471h67.304c8.284 0 15-6.716 15-15v-27.367c15.777-6.053 27.011-21.351 27.011-39.232 0-23.165-18.846-42.011-42.011-42.011s-42.011 18.846-42.011 42.011c0 17.881 11.234 33.179 27.011 39.232v12.367h-52.304v-17.998c0-3.979-1.581-7.794-4.394-10.606l-37.632-37.632c-2.813-2.813-6.628-4.394-10.606-4.394h-22.878v-47.723h12.368c6.053 15.777 21.351 27.011 39.232 27.011 23.165 0 42.011-18.846 42.011-42.011s-18.846-42.012-42.011-42.012c-17.881 0-33.18 11.234-39.232 27.012h-27.368c-8.284 0-15 6.716-15 15v62.724h-37.799v-89.585c0-8.284-6.716-15-15-15s-15 6.716-15 15v89.584h-33.471v-62.723c0-8.284-6.716-15-15-15h-27.367c-6.053-15.778-21.351-27.012-39.233-27.012-23.165 0-42.011 18.847-42.011 42.012s18.846 42.011 42.011 42.011c17.881 0 33.18-11.234 39.233-27.011h12.367v47.724h-41.59c-8.284 0-15 6.716-15 15v55.63h-52.304v-12.367c15.777-6.053 27.011-21.351 27.011-39.232 0-23.165-18.846-42.011-42.011-42.011-23.165-.001-42.011 18.845-42.011 42.01 0 17.881 11.234 33.179 27.011 39.232v27.367c0 8.284 6.716 15 15 15h67.304v37.8h-94.164c-8.284 0-15 6.716-15 15s6.716 15 15 15h94.164v33.471h-67.304c-8.284 0-15 6.716-15 15v27.367c-15.777 6.053-27.011 21.351-27.011 39.232 0 23.165 18.846 42.011 42.011 42.011s42.011-18.846 42.011-42.011c0-17.881-11.234-33.179-27.011-39.232v-12.367h52.304v14.079c0 3.979 1.581 7.794 4.394 10.606l41.551 41.551c2.813 2.813 6.628 4.394 10.606 4.394h9.499v47.724h-12.367c-6.053-15.777-21.351-27.011-39.232-27.011-23.165 0-42.011 18.846-42.011 42.011s18.845 42.01 42.01 42.01c17.881 0 33.179-11.234 39.232-27.011h27.367c8.284 0 15-6.716 15-15v-62.724h37.799v89.583c0 8.284 6.716 15 15 15s15-6.716 15-15v-89.583h33.471v62.724c0 8.284 6.716 15 15 15h27.367c6.054 15.777 21.353 27.011 39.234 27.011 23.165 0 42.011-18.846 42.011-42.011s-18.846-42.011-42.011-42.011c-17.881 0-33.179 11.234-39.232 27.011h-12.367v-47.724h51.05c8.284 0 15-6.716 15-15v-55.63h52.304v12.367c-15.777 6.053-27.011 21.351-27.011 39.232 0 23.165 18.846 42.011 42.011 42.011s42.011-18.846 42.011-42.011c-.001-17.88-11.235-33.178-27.012-39.231zm-15-237.248c6.623 0 12.011 5.388 12.011 12.011s-5.388 12.011-12.011 12.011-12.011-5.388-12.011-12.011 5.388-12.011 12.011-12.011zm-91.214-81.755c6.623 0 12.011 5.389 12.011 12.012s-5.388 12.011-12.011 12.011-12.011-5.388-12.011-12.011 5.389-12.012 12.011-12.012zm-264.47 24.022c-6.623 0-12.011-5.388-12.011-12.011s5.389-12.011 12.011-12.011c6.623 0 12.011 5.389 12.011 12.012s-5.388 12.01-12.011 12.01zm-72.294 57.733c6.623 0 12.011 5.388 12.011 12.011s-5.388 12.011-12.011 12.011-12.011-5.388-12.011-12.011 5.388-12.011 12.011-12.011zm0 288.491c-6.623 0-12.011-5.388-12.011-12.011s5.388-12.011 12.011-12.011 12.011 5.388 12.011 12.011-5.388 12.011-12.011 12.011zm81.754 81.754c-6.623 0-12.011-5.388-12.011-12.011s5.388-12.011 12.011-12.011 12.011 5.388 12.011 12.011-5.388 12.011-12.011 12.011zm264.47-24.021c6.623 0 12.011 5.388 12.011 12.011s-5.388 12.01-12.011 12.01-12.011-5.388-12.011-12.011 5.388-12.01 12.011-12.01zm-15.55-80.713c-45.223 0-154.725 0-200.606 0l-32.764-32.764v-209.767h204.525l28.845 28.845zm97.304 22.98c-6.623 0-12.011-5.388-12.011-12.011s5.388-12.011 12.011-12.011 12.011 5.388 12.011 12.011-5.388 12.011-12.011 12.011z"/></g></svg>