<svg id="Capa_1" enable-background="new 0 0 510.826 510.826" height="512" viewBox="0 0 510.826 510.826" width="512" xmlns="http://www.w3.org/2000/svg"><path id="XMLID_585_" d="m232.516 250.535 21.815-56.837 21.837 56.837h80.046l-39.985-102.015c-13.144 19.903-35.701 33.069-61.286 33.069-26.075 0-49.001-13.677-62.026-34.223l-40.412 103.168h80.011z"/><path id="XMLID_612_" d="m269.943 36.327v-36.327h-30v36.327c4.844-1.01 9.86-1.546 15-1.546s10.156.536 15 1.546z"/><circle id="XMLID_613_" cx="254.943" cy="108.185" r="43.404"/><path id="XMLID_618_" d="m83.801 280.535v29.881h45.247l-50.372 128.593 20.616 8.101-20.75 52.73 27.916 10.986 20.756-52.744 22.281 8.754 60.038-156.42h30.41v37.971h30v-37.971h29.233l60.099 156.419 22.672-8.908 20.361 51.74 27.916-10.987-20.355-51.725 20.221-7.946-50.404-128.593h52.599v-29.881z"/></svg>