<?xml version="1.0" encoding="iso-8859-1"?>
<!-- Generator: Adobe Illustrator 16.0.0, SVG Export Plug-In . SVG Version: 6.00 Build 0)  -->
<!DOCTYPE svg PUBLIC "-//W3C//DTD SVG 1.1//EN" "http://www.w3.org/Graphics/SVG/1.1/DTD/svg11.dtd">
<svg version="1.1" id="Capa_1" xmlns="http://www.w3.org/2000/svg" xmlns:xlink="http://www.w3.org/1999/xlink" x="0px" y="0px"
	 width="31.861px" height="31.862px" viewBox="0 0 31.861 31.862" style="enable-background:new 0 0 31.861 31.862;"
	 xml:space="preserve">
<g>
	<g>
		<path d="M31.737,9.582c-0.341-1.766-1.35-3.295-2.84-4.301c-1.12-0.758-2.422-1.158-3.769-1.158c-2.243,0-4.33,1.108-5.585,2.961
			l-6.917,10.231c-1.008,1.491-1.375,3.284-1.033,5.052c0.341,1.766,1.35,3.294,2.84,4.3c1.119,0.759,2.422,1.158,3.769,1.158
			c2.242,0,4.329-1.108,5.583-2.962l6.917-10.229C31.712,13.141,32.078,11.349,31.737,9.582z M26.059,8.197
			c-0.173-0.039-1.626-0.318-2.846,1.483l-1.834,2.713c-0.218,0.32-0.571,0.494-0.932,0.494c-0.217,0-0.436-0.062-0.628-0.194
			c-0.514-0.347-0.648-1.045-0.301-1.559l1.834-2.712c2.176-3.218,5.168-2.426,5.294-2.39c0.598,0.167,0.947,0.785,0.78,1.382
			C27.261,8.005,26.649,8.351,26.059,8.197z M21.927,23.603c-0.836,1.237-2.229,1.977-3.725,1.977c-0.896,0-1.766-0.268-2.511-0.772
			c-0.993-0.671-1.666-1.689-1.894-2.868c-0.228-1.178,0.018-2.373,0.689-3.365l2.76-4.084c0.41-0.606,1.235-0.766,1.843-0.356
			l5.241,3.543c0.292,0.196,0.493,0.502,0.56,0.847c0.066,0.347-0.006,0.703-0.203,0.995L21.927,23.603z"/>
		<path d="M13.819,11.05c0.056-3.815-2.99-6.954-6.806-7.012c-3.815-0.056-6.955,2.99-7.012,6.807
			c-0.057,3.815,2.99,6.954,6.806,7.009C10.623,17.912,13.762,14.867,13.819,11.05z M10.779,12.175c-0.009,0-0.02,0-0.03,0
			l-7.736-0.204c-0.619-0.017-1.109-0.533-1.092-1.154c0.017-0.618,0.507-1.101,1.151-1.092l7.736,0.202
			c0.619,0.016,1.108,0.532,1.092,1.152C11.883,11.69,11.385,12.175,10.779,12.175z"/>
	</g>
</g>
<g>
</g>
<g>
</g>
<g>
</g>
<g>
</g>
<g>
</g>
<g>
</g>
<g>
</g>
<g>
</g>
<g>
</g>
<g>
</g>
<g>
</g>
<g>
</g>
<g>
</g>
<g>
</g>
<g>
</g>
</svg>
