<svg fill="#FFF" height="512pt" viewBox="0 0 512.0008 512" width="512pt" xmlns="http://www.w3.org/2000/svg"><path d="m506.953125 33.773438c-2.835937-7.78125-11.445313-11.792969-19.222656-8.957032l-186.734375 68.035156v-40.488281l25.089844-6.96875c7.980468-2.21875 12.652343-10.488281 10.4375-18.46875-2.21875-7.980469-10.492188-12.648437-18.464844-10.4375l-17.339844 4.820313c-.886719-5.960938-3.894531-11.429688-8.5625-15.382813-5.617188-4.761719-13.003906-6.792969-20.265625-5.582031l-14.929687 2.488281c-.324219.050781-.640626.121094-.960938.179688-26.128906 4.820312-44.996094 27.398437-44.996094 54.066406v35.773437l-186.730468-68.035156c-7.78125-2.835937-16.390626 1.175782-19.226563 8.957032-7.570313 20.777343-6.597656 43.257812 2.742187 63.300781 9.0625 19.445312 24.9375 34.339843 44.789063 42.101562v.003907c-.90625 5.144531-1.316406 10.339843-1.234375 15.519531v.082031c.007812.394531.03125.792969.042969 1.1875.050781 1.6875.144531 3.371094.300781 5.050781.011719.132813.03125.265625.042969.398438.695312 7.023437 2.292969 13.972656 4.800781 20.707031.128906.34375.265625.6875.398438 1.03125.675781 1.738281 1.398437 3.464844 2.191406 5.171875 9.339844 20.046875 25.925781 35.253906 46.703125 42.824219l44.488281 16.207031c1.886719.230469 3.757812.574219 5.597656 1.042969 6.675782-32.21875 22.503906-56.496094 36.304688-72.472656 22.363281-25.882813 52.730468-44.925782 83.320312-52.238282 3.425782-.820312 6.945313-1.234375 10.464844-1.234375 10.066406 0 19.964844 3.433594 27.867188 9.667969 10.886718 8.59375 17.128906 21.46875 17.128906 35.328125v91.089844l75.183594-27.390625c20.777343-7.570313 37.363281-22.777344 46.703124-42.824219 7.25-15.5625 9.460938-32.589844 6.542969-49.152344.035157-.015625.070313-.03125.105469-.042969h-.003906c19.832031-7.800781 35.652344-22.664062 44.6875-42.054687 9.335937-20.046875 10.308594-42.527344 2.738281-63.304687zm0 0"/><path d="m125.628906 489.230469c-32.507812-33.003907-51.417968-77.261719-53.25-124.621094-1.40625-36.433594 9.554688-63.28125 21.113282-81.199219-3.109376-13.152344-9.367188-25.730468-22.769532-35.738281-5.011718-3.742187-11.816406-3.980469-17.078125-.605469-5.261719 3.378906-7.875 9.664063-6.558593 15.777344 3.28125 15.253906-2.90625 28.476562-10.742188 45.21875-8.503906 18.167969-18.140625 38.761719-17.082031 66.1875 1.511719 39.085938 20.824219 74.839844 54.386719 100.683594 21.027343 16.195312 46.777343 27.628906 73.855468 33.183594-7.710937-5.640626-15.03125-11.9375-21.875-18.886719zm0 0"/><path d="m475.65625 308.0625c-7.835938-16.742188-14.023438-29.964844-10.742188-45.21875 1.316407-6.109375-1.296874-12.398438-6.558593-15.777344-5.261719-3.375-12.0625-3.136718-17.074219.605469-17.25 12.882813-22.660156 30.015625-24.765625 47.160156 7.644531 17.011719 13.96875 38.953125 13.96875 68.039063 0 28.46875-6.882813 56.824218-19.90625 82.007812-12.476563 24.117188-30.597656 45.433594-52.4375 61.683594l-.296875.238281-.417969.308594c-.464843.339844-.933593.679687-1.40625 1.011719l-1.207031.867187c-.519531.371094-1.042969.726563-1.5625 1.085938 31.148438-4.449219 61.183594-16.714844 85.105469-35.136719 33.5625-25.84375 52.875-61.601562 54.382812-100.683594 1.058594-27.429687-8.578125-48.023437-17.082031-66.191406zm0 0"/><path d="m400.488281 362.871094c0-40.542969-14.117187-62.988282-25.457031-81.019532-1.324219-2.105468-2.582031-4.105468-3.769531-6.054687l-63.585938 23.167969c-4.261719-12.984375-6.679687-27.347656-6.679687-40v-91.511719c0-4.59375-2.105469-8.929687-5.707032-11.773437-3.605468-2.84375-8.3125-3.882813-12.78125-2.816407-24.609374 5.886719-49.25 21.441407-67.59375 42.679688-14.707031 17.023437-32.238281 45.542969-32.238281 84.746093v61.355469c-5.136719-5.792969-9.222656-13.390625-11.816406-18.945312-7.710937-16.488281-11.265625-33.515625-11.296875-33.671875-1.027344-5.042969-4.574219-9.210938-9.390625-11.03125-4.8125-1.824219-10.226563-1.046875-14.339844 2.050781-1.453125 1.097656-35.636719 27.539063-33.476562 83.40625 1.539062 39.871094 17.394531 77.0625 44.640625 104.726563 27.800781 28.21875 64.882812 43.761718 104.417968 43.761718 3.207032 0 6.417969-.125 9.625-.34375 19.636719-1.257812 38.25-6.320312 55.105469-14.476562.125-.058594.253907-.113282.378907-.171875 6.292968-3.066407 12.335937-6.570313 18.097656-10.460938.128906-.089843.257812-.179687.390625-.269531.820312-.558594 1.632812-1.121094 2.445312-1.695312.234375-.167969.464844-.335938.703125-.503907.488282-.351562.984375-.699219 1.46875-1.058593.050782-.039063.097656-.082032.148438-.125 36.796875-27.164063 60.710937-70.816407 60.710937-119.964844zm0 0"/></svg>